<?xml version="1.0" encoding="utf-8"?>
<!-- Generator: Adobe Illustrator 22.0.1, SVG Export Plug-In . SVG Version: 6.00 Build 0)  -->
<svg version="1.1" id="Layer_1" xmlns="http://www.w3.org/2000/svg" xmlns:xlink="http://www.w3.org/1999/xlink" x="0px" y="0px"
	 viewBox="0 0 24 24" style="enable-background:new 0 0 24 24;" xml:space="preserve">
<style type="text/css">
	.st0{fill:#D5D1C4;}
</style>
<path class="st0" d="M19.2,17.6l-3.1-3.1c0.7-1.1,1.1-2.3,1.1-3.6c0-0.9-0.2-1.7-0.5-2.5c-0.3-0.8-0.8-1.5-1.4-2s-1.2-1-2-1.4
	c-0.8-0.3-1.6-0.5-2.5-0.5C10,4.5,9.2,4.6,8.4,5c-0.8,0.3-1.5,0.8-2,1.4c-0.6,0.6-1,1.2-1.4,2C4.6,9.2,4.5,10,4.5,10.8
	c0,0.9,0.2,1.7,0.5,2.5c0.3,0.8,0.8,1.5,1.4,2c0.6,0.6,1.2,1,2,1.4c0.8,0.3,1.6,0.5,2.5,0.5c1.3,0,2.5-0.4,3.6-1.1l3.1,3.1
	c0.2,0.2,0.5,0.3,0.8,0.3c0.3,0,0.6-0.1,0.8-0.3c0.2-0.2,0.3-0.5,0.3-0.8C19.5,18.1,19.4,17.8,19.2,17.6L19.2,17.6z M13.7,13.7
	c-0.8,0.8-1.7,1.2-2.9,1.2c-1.1,0-2.1-0.4-2.9-1.2c-0.8-0.8-1.2-1.7-1.2-2.9C6.8,9.7,7.2,8.8,8,8c0.8-0.8,1.7-1.2,2.9-1.2
	s2.1,0.4,2.9,1.2c0.8,0.8,1.2,1.7,1.2,2.9C14.9,12,14.5,12.9,13.7,13.7L13.7,13.7z"/>
</svg>
